<?xml version="1.0" standalone="no"?>
<!DOCTYPE svg PUBLIC "-//W3C//DTD SVG 20010904//EN"
 "http://www.w3.org/TR/2001/REC-SVG-20010904/DTD/svg10.dtd">
<svg version="1.0" xmlns="http://www.w3.org/2000/svg"
 width="178.000000pt" height="178.000000pt" viewBox="0 0 178.000000 178.000000"
 preserveAspectRatio="xMidYMid meet">
<g transform="translate(0.000000,178.000000) scale(0.100000,-0.100000)"
fill="#000000" stroke="none">
<path d="M397 1243 c-4 -3 -7 -48 -7 -99 l0 -93 96 -3 c53 -2 98 -1 100 1 2 2
4 49 4 103 l0 98 -93 0 c-52 0 -97 -3 -100 -7z m170 -101 l5 -73 -81 2 -81 2
0 74 0 74 76 -3 77 -3 4 -73z"/>
<path d="M634 1241 c-2 -2 -4 -18 -3 -35 l1 -31 10 28 c10 28 11 28 86 25 l77
-3 3 -88 c2 -53 7 -85 12 -82 12 7 13 154 2 172 -7 11 -178 24 -188 14z"/>
<path d="M960 1240 l-85 -5 0 -87 c0 -49 4 -88 9 -88 5 0 8 38 7 85 l-2 85 79
0 80 0 4 -47 c2 -26 2 -62 0 -80 l-4 -33 -72 -1 -71 -2 60 -8 c102 -13 105
-11 105 86 0 55 -4 85 -12 91 -7 5 -51 7 -98 4z"/>
<path d="M632 1113 l3 -58 83 -1 c45 0 82 3 82 7 0 5 -32 8 -71 8 -39 0 -73 2
-76 5 -3 2 -5 25 -6 50 0 25 -4 46 -9 46 -5 0 -8 -26 -6 -57z"/>
<path d="M397 1004 c-4 -4 -7 -49 -7 -101 l0 -93 100 0 101 0 -3 98 -3 97 -90
3 c-50 1 -94 0 -98 -4z m173 -96 l0 -78 -81 0 -80 0 2 73 c1 39 3 75 5 78 1 3
37 5 78 5 l76 -1 0 -77z"/>
<path d="M718 1002 l-88 -3 1 -95 0 -95 97 3 97 3 3 43 c2 23 -1 42 -7 42 -5
0 -11 -17 -13 -37 l-3 -38 -73 -1 c-40 0 -75 3 -77 6 -2 3 -5 40 -7 81 l-3 74
85 0 85 0 -3 -37 c-2 -21 1 -38 6 -38 13 0 11 88 -2 92 -6 2 -50 2 -98 0z"/>
<path d="M876 995 c-10 -28 -7 -122 4 -105 5 8 10 31 10 50 0 23 6 39 18 46
23 14 138 10 135 -5 -2 -6 4 -11 13 -11 9 0 14 7 12 17 -3 14 -18 18 -94 21
-78 3 -92 1 -98 -13z"/>
<path d="M980 949 c0 -5 5 -7 10 -4 6 3 10 8 10 11 0 2 -4 4 -10 4 -5 0 -10
-5 -10 -11z"/>
<path d="M1052 941 c-49 -13 -109 -56 -139 -103 -56 -83 -30 -210 57 -280 48
-38 130 -55 190 -38 86 23 161 127 160 221 -1 43 -23 104 -47 131 -50 56 -149
87 -221 69z m134 -60 c76 -35 109 -121 77 -205 -38 -102 -146 -144 -243 -94
-112 58 -119 223 -11 295 43 29 119 30 177 4z"/>
<path d="M1186 805 c-3 -9 -2 -13 4 -10 15 9 31 -42 21 -67 -12 -30 -70 -88
-99 -99 -13 -5 -37 -9 -54 -9 -32 0 -32 -12 0 -17 50 -8 141 61 162 124 17 47
-16 123 -34 78z"/>
<path d="M1142 755 c-7 -8 -9 -15 -4 -15 5 0 15 7 22 15 16 19 -1 19 -18 0z"/>
<path d="M1030 655 c-7 -9 -11 -17 -9 -20 3 -2 10 5 17 15 14 24 10 26 -8 5z"/>
<path d="M870 850 c0 -19 3 -21 12 -12 9 9 9 15 0 24 -9 9 -12 7 -12 -12z"/>
<path d="M390 670 l0 -100 100 0 100 0 0 100 0 100 -100 0 -100 0 0 -100z
m180 0 l0 -80 -80 0 -80 0 0 73 c0 41 3 77 7 80 3 4 39 7 80 7 l73 0 0 -80z"/>
<path d="M635 758 c-3 -7 -4 -51 -2 -98 l2 -85 93 0 94 0 1 95 2 94 -93 4
c-70 3 -93 0 -97 -10z m173 -90 l-3 -81 -50 0 c-27 1 -62 2 -77 2 l-28 1 0 80
0 80 80 0 81 0 -3 -82z"/>
<path d="M870 596 c0 -16 27 -29 35 -16 3 5 -4 14 -15 20 -16 8 -20 8 -20 -4z"/>
<path d="M1272 574 c-12 -8 -22 -23 -22 -32 0 -9 29 -48 63 -86 56 -61 66 -68
89 -63 61 16 39 73 -60 155 -46 39 -50 40 -70 26z m26 -27 c-6 -8 24 -36 35
-32 7 2 27 -15 46 -37 28 -32 32 -41 20 -49 -9 -6 -18 -4 -25 6 -6 8 -13 12
-17 9 -3 -3 -13 7 -24 21 -10 15 -27 36 -39 48 -15 16 -17 26 -10 34 10 10 22
10 14 0z m32 -17 c0 -5 -2 -10 -4 -10 -3 0 -8 5 -11 10 -3 6 -1 10 4 10 6 0
11 -4 11 -10z"/>
<path d="M1337 480 c10 -11 19 -20 21 -20 1 0 -2 9 -8 20 -6 11 -15 20 -20 20
-6 0 -2 -9 7 -20z"/>
</g>
</svg>
