<?xml version="1.0" standalone="no"?>
<!DOCTYPE svg PUBLIC "-//W3C//DTD SVG 20010904//EN"
 "http://www.w3.org/TR/2001/REC-SVG-20010904/DTD/svg10.dtd">
<svg version="1.0" xmlns="http://www.w3.org/2000/svg"
 width="178.000000pt" height="178.000000pt" viewBox="0 0 178.000000 178.000000"
 preserveAspectRatio="xMidYMid meet">
<g transform="translate(0.000000,178.000000) scale(0.100000,-0.100000)"
fill="#000000" stroke="none">
<path d="M1240 1101 c0 -156 2 -181 15 -181 14 0 15 23 11 177 -3 117 -8 179
-15 181 -8 3 -11 -50 -11 -177z"/>
<path d="M1142 1215 c-29 -13 -59 -22 -66 -19 -18 7 -28 -9 -20 -30 8 -21 24
-20 25 2 0 14 2 14 15 -5 16 -22 16 -22 36 -3 11 10 17 23 13 29 -7 12 0 13
33 5 18 -5 20 -9 11 -20 -6 -8 -17 -14 -25 -14 -21 0 -72 -52 -88 -91 -27 -64
-22 -134 12 -168 13 -13 12 -16 -4 -22 -12 -5 -14 -8 -5 -8 8 -1 12 -3 9 -6
-7 -8 -38 5 -38 16 0 5 7 9 16 9 8 0 12 5 9 10 -4 6 -10 8 -15 5 -11 -7 -33
32 -26 44 3 5 -4 11 -15 14 -17 5 -19 9 -9 26 6 12 8 21 5 21 -3 0 1 10 9 22
9 12 16 32 16 44 0 22 24 49 44 49 6 0 11 5 11 10 0 15 -48 6 -62 -11 -6 -9
-15 -33 -18 -55 -5 -28 -12 -39 -25 -39 -12 0 -19 -9 -22 -28 -5 -36 0 -52 17
-52 7 0 18 -15 24 -33 20 -59 43 -75 98 -70 26 3 49 7 51 8 2 1 -10 16 -27 32
-41 41 -58 101 -42 152 14 48 63 100 102 108 27 5 29 9 29 49 0 52 -5 53 -78
19z m-5 -41 c-3 -3 -12 -4 -19 -1 -8 3 -5 6 6 6 11 1 17 -2 13 -5z"/>
<path d="M1288 1200 c-3 -39 -2 -42 37 -63 25 -14 49 -39 64 -66 23 -41 24
-48 13 -99 -13 -60 -35 -92 -63 -92 -10 0 -20 -3 -22 -7 -3 -5 38 -8 91 -8 54
-1 89 1 80 3 -30 6 -18 82 12 82 20 0 28 22 22 58 -3 13 -12 22 -23 22 -12 0
-19 7 -19 20 0 25 -21 73 -37 83 -8 5 -11 18 -7 33 7 28 -10 32 -41 10 -29
-19 -69 -31 -61 -17 4 6 1 11 -7 11 -8 0 -18 7 -21 16 -5 12 -2 15 10 10 8 -3
25 -6 37 -6 18 0 19 -2 7 -11 -12 -8 -12 -10 4 -7 35 5 28 25 -17 47 -24 11
-46 21 -49 21 -3 0 -8 -18 -10 -40z m132 -50 c0 -5 -7 -10 -15 -10 -8 0 -15 5
-15 10 0 6 7 10 15 10 8 0 15 -4 15 -10z m-24 -30 c15 -17 31 -27 40 -23 8 3
14 2 13 -3 -1 -5 -1 -11 1 -14 1 -3 3 -16 6 -29 2 -13 14 -32 25 -42 l21 -18
-21 -22 c-11 -12 -23 -31 -27 -41 -3 -11 -14 -18 -27 -17 -16 1 -18 3 -5 6 11
3 15 10 11 20 -5 12 -3 14 7 8 8 -5 11 -4 6 3 -3 5 0 13 6 16 7 3 3 3 -9 0
-14 -3 -23 -1 -23 6 0 6 5 8 10 5 6 -3 10 0 10 9 0 8 6 17 13 20 6 4 2 4 -10
2 -15 -3 -23 1 -23 11 0 8 5 11 10 8 22 -13 8 19 -30 70 -43 58 -45 75 -4 25z"/>
<path d="M610 1173 c-37 -25 -60 -54 -60 -74 0 -17 -3 -17 -35 -3 -51 21 -101
18 -141 -10 l-35 -24 38 -4 c23 -3 46 0 58 9 22 15 63 17 84 4 10 -7 8 -12 -9
-24 -34 -24 -5 -30 34 -6 19 11 40 18 45 15 5 -4 12 -2 15 3 4 5 -3 12 -14 16
-28 9 -25 17 15 54 19 17 35 38 35 46 0 19 0 19 -30 -2z"/>
<path d="M1066 1105 c-9 -26 -7 -32 5 -12 6 10 9 21 6 23 -2 3 -7 -2 -11 -11z"/>
<path d="M1572 965 c0 -16 2 -22 5 -12 2 9 2 23 0 30 -3 6 -5 -1 -5 -18z"/>
<path d="M385 952 c-55 -15 -106 -31 -112 -35 -16 -10 -18 -177 -3 -177 6 0
10 11 10 24 0 30 15 42 63 51 20 4 37 12 37 17 0 6 -8 7 -17 3 -10 -4 -34 -9
-53 -12 -35 -5 -35 -5 -34 32 1 20 5 40 10 44 12 12 101 39 149 47 l40 6 0
-48 -1 -48 -44 -13 -45 -13 46 6 46 5 -7 -51 c-6 -48 -1 -68 14 -53 3 3 6 55
6 115 l0 108 33 -1 c17 -1 45 -4 61 -8 28 -6 30 -10 34 -59 3 -51 3 -53 -20
-48 -52 12 -88 14 -88 5 0 -5 11 -9 24 -9 13 0 37 -3 54 -6 27 -6 30 -9 30
-51 2 -61 12 -69 12 -10 l0 47 38 0 c72 0 82 -7 82 -59 0 -27 4 -41 8 -33 12
18 14 162 3 162 -5 0 -9 -15 -8 -32 2 -24 -2 -33 -13 -31 -8 1 -36 4 -62 8
l-48 6 0 50 c0 55 5 58 89 38 40 -9 62 -6 50 6 -4 4 -276 47 -282 44 -1 0 -47
-13 -102 -27z"/>
<path d="M367 904 c-4 -4 -7 -19 -6 -33 l0 -26 10 24 c10 26 8 47 -4 35z"/>
<path d="M1227 856 c-3 -8 -28 -15 -66 -19 -34 -3 -68 -11 -76 -17 -12 -10
-16 -9 -21 3 -3 9 -13 13 -25 10 -22 -6 -26 -33 -4 -33 25 0 16 -13 -45 -64
-63 -53 -90 -70 -130 -79 -25 -6 -25 -6 -27 63 -1 61 1 70 16 70 15 0 18 -9
17 -47 -1 -27 3 -49 9 -50 6 -2 9 19 9 47 l-1 50 34 0 c31 0 33 -2 33 -36 0
-21 4 -33 10 -29 6 3 10 33 10 66 l0 59 -80 0 -80 0 3 -109 3 -108 -74 -7
c-41 -3 -169 -6 -284 -6 l-208 0 0 34 c0 19 3 37 8 39 4 3 58 8 120 12 l112 7
0 -41 c0 -23 5 -41 11 -41 7 0 10 14 7 35 l-4 35 58 0 c41 0 58 -4 57 -12 -4
-30 2 -59 10 -54 5 3 7 20 5 37 -4 30 -3 31 27 25 17 -3 44 -6 60 -6 29 0 42
-24 17 -32 -7 -3 -6 -7 5 -11 13 -5 17 -1 17 18 0 48 19 44 -269 50 -122 3
-230 9 -240 14 -16 8 -129 6 -138 -3 -3 -2 -5 -30 -4 -61 0 -35 -4 -58 -12
-61 -18 -7 -20 -118 -3 -158 16 -38 41 -47 95 -33 42 11 101 3 171 -24 47 -18
80 -20 309 -22 254 -2 382 5 474 25 60 13 74 3 17 -12 -23 -6 -40 -14 -37 -16
5 -6 141 19 212 38 85 23 122 26 190 17 38 -5 80 -17 93 -25 32 -21 39 -12 63
82 11 43 24 95 29 113 5 19 8 36 7 38 -2 1 -43 -2 -92 -7 -50 -5 -169 -14
-265 -20 -96 -6 -260 -17 -365 -26 -135 -10 -292 -14 -540 -12 -324 3 -350 4
-353 21 -3 16 14 17 240 17 327 1 482 12 544 39 53 24 120 75 177 135 l37 40
198 0 c152 1 196 -2 195 -11 -2 -7 2 -13 7 -13 12 0 13 20 1 38 -6 10 -42 14
-137 15 -71 1 -119 3 -106 5 12 2 22 8 22 13 0 14 -47 11 -53 -5z m-273 -35
c3 -4 -15 -11 -41 -15 -68 -9 -83 -8 -83 9 0 12 13 15 59 15 33 0 62 -4 65 -9z
m-748 -121 c35 0 35 0 32 -42 -2 -24 -6 -42 -10 -40 -5 1 -30 2 -57 2 l-49 0
0 38 c0 38 13 55 36 47 8 -3 29 -5 48 -5z m1474 -111 c0 -6 -7 -41 -16 -78
l-16 -68 -132 1 c-103 1 -139 -3 -166 -16 -27 -12 -80 -18 -220 -23 -102 -4
-187 -9 -190 -10 -14 -8 -492 -1 -545 8 -11 2 -44 11 -74 21 -42 15 -69 17
-127 12 -71 -7 -74 -6 -79 17 -4 13 -4 36 -2 53 l4 29 369 2 c232 2 427 8 524
17 85 8 252 20 370 26 118 6 220 13 225 15 24 8 75 4 75 -6z"/>
<path d="M168 523 c12 -2 30 -2 40 0 9 3 -1 5 -23 4 -22 0 -30 -2 -17 -4z"/>
<path d="M360 776 c0 -20 5 -36 10 -36 6 0 10 13 10 29 0 17 -4 33 -10 36 -6
4 -10 -8 -10 -29z"/>
<path d="M1617 787 c-73 -6 -116 -14 -114 -20 4 -12 99 -10 178 2 27 4 50 6
52 4 2 -2 1 -23 -3 -48 -4 -25 -3 -45 1 -45 17 0 31 112 14 115 -6 1 -63 -3
-128 -8z"/>
<path d="M1422 731 c-20 -12 -10 -46 14 -49 24 -3 39 29 21 47 -13 13 -18 13
-35 2z"/>
<path d="M364 676 c-3 -8 -1 -23 5 -33 9 -15 10 -13 11 15 0 34 -7 42 -16 18z"/>
<path d="M1671 659 c-24 -5 -197 -18 -385 -29 -187 -11 -368 -25 -401 -30 -33
-6 -86 -10 -117 -10 -31 0 -59 -3 -61 -7 -6 -10 71 -7 288 12 247 21 643 49
696 50 30 0 46 4 46 12 0 14 -3 14 -66 2z"/>
<path d="M678 653 c7 -3 16 -2 19 1 4 3 -2 6 -13 5 -11 0 -14 -3 -6 -6z"/>
<path d="M0 457 c0 -24 37 -46 65 -38 32 8 21 21 -32 39 -25 8 -33 8 -33 -1z"/>
<path d="M1735 410 c3 -5 15 -10 26 -10 10 0 19 5 19 10 0 6 -12 10 -26 10
-14 0 -23 -4 -19 -10z"/>
<path d="M65 380 c24 -10 81 -11 115 -1 16 5 -3 8 -55 9 -53 0 -73 -2 -60 -8z"/>
<path d="M315 363 c68 -29 158 -40 195 -24 22 10 19 11 -20 6 -32 -4 -68 2
-125 20 -103 32 -126 31 -50 -2z"/>
<path d="M1358 376 c-20 -8 -38 -12 -41 -10 -2 3 -37 -3 -78 -12 -70 -16 -160
-15 -229 2 -43 11 -9 -12 44 -30 72 -24 133 -20 252 15 114 34 101 33 344 13
82 -7 95 1 17 10 -27 3 -53 9 -59 12 -23 14 -212 14 -250 0z"/>
<path d="M408 283 c7 -3 16 -2 19 1 4 3 -2 6 -13 5 -11 0 -14 -3 -6 -6z"/>
</g>
</svg>
