<?xml version="1.0" standalone="no"?>
<!DOCTYPE svg PUBLIC "-//W3C//DTD SVG 20010904//EN"
 "http://www.w3.org/TR/2001/REC-SVG-20010904/DTD/svg10.dtd">
<svg version="1.0" xmlns="http://www.w3.org/2000/svg"
 width="178.000000pt" height="178.000000pt" viewBox="0 0 178.000000 178.000000"
 preserveAspectRatio="xMidYMid meet">
<g transform="translate(0.000000,178.000000) scale(0.100000,-0.100000)"
fill="#000000" stroke="none">
<path d="M344 1218 c-42 -20 -45 -43 -42 -261 3 -200 4 -207 26 -229 17 -17
34 -23 67 -23 l45 0 0 -72 c0 -40 4 -73 9 -73 5 0 11 3 13 8 2 4 38 38 82 75
48 42 84 66 93 63 8 -3 55 -6 104 -6 88 0 89 0 95 -27 12 -49 27 -52 200 -53
138 0 163 -2 180 -17 75 -68 117 -102 123 -98 4 2 6 29 5 59 -2 55 -2 55 30
62 58 10 66 39 66 223 0 159 -1 162 -25 186 -23 24 -28 25 -175 25 l-150 0 0
56 c0 48 -4 59 -29 85 l-29 29 -334 -1 c-207 0 -341 -4 -354 -11z m698 -35
c13 -12 18 -30 18 -70 l0 -53 -89 0 c-134 0 -135 -1 -139 -184 l-3 -146 -114
0 -114 0 -63 -55 c-34 -30 -66 -55 -70 -55 -4 0 -7 17 -6 38 1 73 2 72 -45 72
-23 0 -53 7 -65 16 -22 15 -22 20 -22 219 0 172 2 206 16 219 13 14 59 16 346
16 294 0 333 -2 350 -17z m358 -163 c5 -7 6 -20 2 -28 -3 -9 -1 -13 4 -10 5 4
9 -54 8 -140 0 -154 -9 -192 -43 -192 -26 0 -49 -30 -53 -69 l-3 -34 -50 42
c-27 23 -49 45 -48 49 1 5 -70 7 -158 7 -119 -1 -163 2 -171 12 -5 7 -14 11
-18 8 -5 -3 -6 5 -3 17 4 19 3 20 -6 8 -9 -13 -11 -12 -12 5 -1 11 0 25 2 30
1 6 4 60 5 120 1 61 3 123 3 138 1 16 5 26 11 22 5 -3 7 0 4 9 -8 21 11 22
280 20 182 -1 240 -5 246 -14z"/>
<path d="M430 1065 c0 -13 25 -15 165 -15 140 0 165 2 165 15 0 13 -25 15
-165 15 -140 0 -165 -2 -165 -15z"/>
<path d="M434 981 c-2 -2 -4 -10 -4 -18 0 -11 31 -13 163 -11 125 2 162 6 162
16 0 10 -36 14 -158 15 -87 1 -161 0 -163 -2z"/>
<path d="M588 892 c-131 -2 -158 -5 -158 -17 0 -13 26 -15 165 -15 137 0 165
2 165 14 0 8 -3 16 -7 18 -5 2 -79 2 -165 0z"/>
<path d="M947 922 c-10 -10 -17 -22 -17 -26 0 -14 25 -33 38 -28 21 7 13 -12
-13 -32 -32 -24 -31 -28 3 -48 23 -14 54 -16 196 -14 173 3 194 8 181 45 -3 8
0 18 7 22 9 6 7 8 -7 8 -167 -2 -345 3 -345 10 0 5 79 9 176 9 138 0 178 3
185 13 12 19 11 25 -7 43 -13 13 -45 16 -198 16 -164 0 -185 -2 -199 -18z
m388 -20 c0 -9 -44 -13 -188 -15 -173 -2 -187 -1 -187 16 0 16 14 17 188 15
143 -2 187 -6 187 -16z m-20 -90 c0 -10 -40 -13 -175 -13 -155 -1 -175 1 -178
15 -3 15 14 16 175 14 137 -2 178 -6 178 -16z"/>
</g>
</svg>
