<?xml version="1.0" standalone="no"?>
<!DOCTYPE svg PUBLIC "-//W3C//DTD SVG 20010904//EN"
 "http://www.w3.org/TR/2001/REC-SVG-20010904/DTD/svg10.dtd">
<svg version="1.0" xmlns="http://www.w3.org/2000/svg"
 width="178.000000pt" height="178.000000pt" viewBox="0 0 178.000000 178.000000"
 preserveAspectRatio="xMidYMid meet">
<g transform="translate(0.000000,178.000000) scale(0.100000,-0.100000)"
fill="#050505" stroke="none">
<path d="M1033 1184 c-2 -80 1 -113 8 -108 6 3 9 25 7 48 -2 22 2 42 7 43 6 2
11 -10 11 -25 3 -63 -2 -60 67 -49 109 17 122 16 121 -13 0 -14 -4 -35 -8 -47
-12 -37 12 -27 31 12 9 19 23 35 30 35 14 0 16 -8 13 -57 -2 -38 8 -41 38 -13
12 11 26 20 32 20 25 0 1 20 -111 94 -66 44 -146 101 -179 128 -33 26 -61 48
-63 48 -1 0 -3 -52 -4 -116z m81 24 c-3 -5 -1 -8 3 -8 5 0 18 -7 29 -16 18
-15 18 -15 -3 -5 -12 6 -36 11 -54 11 -27 0 -31 3 -26 22 4 12 1 29 -6 37 -7
8 4 4 25 -10 20 -13 34 -27 32 -31z m52 -64 c22 -15 23 -19 10 -26 -9 -5 -33
-8 -54 -6 -33 3 -37 6 -40 32 -3 27 -2 29 27 23 17 -4 43 -14 57 -23z"/>
<path d="M318 1150 c-17 -14 -18 -31 -16 -213 l3 -197 348 -5 347 -5 0 199 c0
183 -1 199 -19 216 -18 15 -49 17 -332 19 -265 1 -316 -1 -331 -14z m649 -26
c7 -10 12 -74 13 -189 1 -157 -1 -173 -17 -179 -19 -8 -394 -6 -551 2 l-93 5
1 178 c1 128 5 181 14 188 14 12 230 18 466 13 125 -2 157 -6 167 -18z"/>
<path d="M1083 953 l-53 -4 0 -121 0 -121 -485 5 c-267 3 -488 2 -490 -3 -3
-5 50 -10 117 -11 101 -2 123 -6 124 -18 1 -8 2 -24 3 -36 2 -34 38 -64 77
-64 27 0 41 8 65 34 60 69 136 71 192 5 l34 -39 222 0 222 0 30 34 c34 40 88
61 127 51 31 -7 82 -52 82 -72 0 -9 18 -13 65 -13 l65 0 0 60 c0 49 -3 62 -17
66 -34 10 -48 21 -58 42 -5 12 -15 22 -22 22 -7 0 -13 4 -13 8 0 4 9 8 19 8
11 0 18 -3 16 -6 -2 -3 8 -10 21 -17 47 -22 29 3 -66 94 l-97 92 -64 4 c-35 2
-88 2 -116 0z m-22 -40 c-8 -15 -10 -15 -11 -2 0 17 10 32 18 25 2 -3 -1 -13
-7 -23z m258 -55 c30 -32 50 -58 45 -59 -5 0 -43 -1 -84 -1 l-75 0 -5 64 -5
64 35 -6 c26 -4 49 -20 89 -62z m-147 15 c3 -27 3 -51 1 -55 -2 -5 -24 -8 -49
-8 l-44 0 0 55 0 55 44 0 44 0 4 -47z m-102 -77 c0 -8 15 -12 45 -11 27 1 45
-2 45 -9 0 -7 3 -7 8 1 4 7 17 10 30 6 12 -3 19 -10 15 -16 -4 -6 -1 -7 8 -2
16 11 49 14 49 5 0 -3 9 -6 20 -6 11 0 20 4 20 8 0 8 38 5 63 -7 12 -5 15 -10
8 -15 -14 -8 34 -60 55 -60 8 0 14 -5 14 -11 0 -5 -5 -7 -11 -3 -6 3 -3 -5 6
-20 10 -15 13 -26 6 -26 -5 0 -8 -6 -5 -13 3 -9 -7 -14 -37 -15 -33 -2 -42 1
-46 16 -8 32 -62 65 -107 66 -37 0 -136 -36 -136 -50 0 -3 5 -2 12 2 7 4 8 3
4 -4 -4 -7 -17 -12 -29 -12 -15 0 -18 -3 -10 -8 19 -12 -415 -4 -438 8 -10 6
-18 16 -16 23 1 7 -4 11 -10 9 -17 -3 -17 15 0 22 6 4 2 4 -9 2 -12 -2 -28 1
-35 5 -9 6 70 9 199 8 117 -1 215 1 219 5 3 3 15 6 25 6 19 0 23 15 18 84 -1
26 2 36 9 32 6 -4 11 -13 11 -20z m-686 -116 c17 -6 26 -6 26 0 0 6 12 10 28
10 26 -1 26 -1 7 -16 -19 -15 -19 -15 10 -9 26 5 27 4 8 -4 -12 -6 -28 -19
-35 -30 -10 -16 -15 -18 -27 -8 -10 8 -13 8 -8 1 12 -20 -23 -25 -49 -7 -19
12 -22 18 -12 24 9 6 9 9 1 9 -6 0 -11 9 -10 20 1 22 21 25 61 10z"/>
<path d="M1031 654 c0 -11 3 -14 6 -6 3 7 2 16 -1 19 -3 4 -6 -2 -5 -13z"/>
<path d="M918 633 c7 -3 16 -2 19 1 4 3 -2 6 -13 5 -11 0 -14 -3 -6 -6z"/>
<path d="M504 640 c-55 -22 -85 -117 -49 -154 8 -8 15 -16 15 -18 0 -2 -66 -1
-146 0 -95 3 -150 0 -157 -7 -8 -8 135 -10 499 -10 289 0 500 4 489 9 -11 5
-140 8 -287 7 -245 -2 -265 -1 -252 14 8 9 19 30 23 47 7 25 5 37 -16 67 -33
49 -73 64 -119 45z m82 -55 c23 -23 13 -67 -18 -84 -23 -13 -30 -13 -52 -2
-34 18 -41 46 -22 76 19 29 68 34 92 10z"/>
<path d="M530 540 c0 -5 5 -10 10 -10 6 0 10 5 10 10 0 6 -4 10 -10 10 -5 0
-10 -4 -10 -10z"/>
<path d="M1205 641 c-33 -14 -56 -47 -62 -90 -5 -35 -2 -44 24 -69 l29 -30
225 0 c136 -1 216 3 204 8 -11 5 -87 9 -169 9 -141 1 -148 2 -134 19 39 44 23
107 -35 142 -34 21 -51 23 -82 11z m-10 -31 c-3 -5 -12 -10 -18 -10 -7 0 -6 4
3 10 19 12 23 12 15 0z m85 -22 c53 -57 -16 -127 -75 -76 -24 21 -25 26 -15
53 19 50 56 60 90 23z"/>
</g>
</svg>
